<svg xmlns="http://www.w3.org/2000/svg" xmlns:xlink="http://www.w3.org/1999/xlink" version="1.1" width="1280" height="1024" viewBox="0 0 1280 1024" xml:space="preserve">
<desc>Created with Fabric.js 5.3.0</desc>
<defs>
</defs>
<g transform="matrix(1 0 0 1 640 512)" id="background-logo"  >
<rect style="stroke: none; stroke-width: 0; stroke-dasharray: none; stroke-linecap: butt; stroke-dashoffset: 0; stroke-linejoin: miter; stroke-miterlimit: 4; fill: rgb(255,255,255); fill-opacity: 0; fill-rule: nonzero; opacity: 1;"  paint-order="stroke"  x="-640" y="-512" rx="0" ry="0" width="1280" height="1024" />
</g>
<g transform="matrix(1.9046366734752782 0 0 1.9046366734752782 219.7139892454199 512.9065335753177)" id="logo-logo"  >
<g style=""  paint-order="stroke"   >
		<g transform="matrix(0.6344162330776368 0 0 0.6344162330776368 30.401507040897684 -63.905168544802535)"  >
<linearGradient id="SVGID_83_399982" gradientUnits="userSpaceOnUse" gradientTransform="matrix(1 0 0 1 0 0)"  x1="375.7020874" y1="262.6775818" x2="256.8901978" y2="284.0637207">
<stop offset="0%" style="stop-color:rgb(130,241,126);stop-opacity: 1"/>
<stop offset="23.95141%" style="stop-color:rgb(99,237,94);stop-opacity: 1"/>
<stop offset="55.26626%" style="stop-color:rgb(68,234,62);stop-opacity: 1"/>
<stop offset="80.89359999999999%" style="stop-color:rgb(50,232,44);stop-opacity: 1"/>
<stop offset="97.44263%" style="stop-color:rgb(41,231,35);stop-opacity: 1"/>
</linearGradient>
<path style="stroke: none; stroke-width: 1; stroke-dasharray: none; stroke-linecap: butt; stroke-dashoffset: 0; stroke-linejoin: miter; stroke-miterlimit: 4; fill: url(#SVGID_83_399982); fill-rule: nonzero; opacity: 1;"  paint-order="stroke"  transform=" translate(-302.632394403641, -280.04170488619405)" d="M 359.8766479 291.2023315 C 346.0466308 278.8623046 333.8462524 272.8676757 320.3261718 270.2876586 C 306.2532653 267.6117248 288.7271728 266.10821519999996 278.3831786 278.2412108 C 276.121704 280.89376819999995 274.6420592 284.14535509999996 274.3993224 287.64236439999996 C 273.9770202 293.7264403 278.51827990000004 299.67044059999995 284.46298210000003 300.5831603 L 279.246643 309.6523436 C 273.496643 308.5823363 267.6966552 307.5023192 262.2966308 305.262329 C 256.8866577 303.012329 251.8466644 299.50231920000004 248.7866058 294.5223388 C 243.3566131 285.6823119 245.1766204 274.1723022 249.06663509999998 264.5623168 C 249.8266449 262.69232170000004 250.67662049999998 260.8223266 252.05662529999998 259.35229480000004 C 253.64665219999998 257.6723021 255.79661549999997 256.6723021 257.94665519999995 255.81231680000005 C 273.39666739999996 249.61230460000004 291.99664299999995 248.42230220000005 307.65667719999993 254.07232660000005 C 314.74664299999995 256.62231440000005 320.45666499999993 259.35229490000006 326.98663329999994 263.0922851 C 331.3566283999999 265.58233640000003 337.11663819999995 269.932312 341.18664549999994 272.89233390000004 C 348.6466675 278.3123169 353.8366699 284.4623413 359.8766479 291.2023315 z" stroke-linecap="round" />
</g>
		<g transform="matrix(0.6344162330776368 0 0 0.6344162330776368 27.33647849541933 66.16492651705028)"  >
<linearGradient id="SVGID_84_399983" gradientUnits="userSpaceOnUse" gradientTransform="matrix(1 0 0 1 0 0)"  x1="246.8726654" y1="519.2625122" x2="327.6647339" y2="464.1338196">
<stop offset="0%" style="stop-color:rgb(29,207,23);stop-opacity: 1"/>
<stop offset="8.04149%" style="stop-color:rgb(26,188,21);stop-opacity: 1"/>
<stop offset="28.59347%" style="stop-color:rgb(21,147,16);stop-opacity: 1"/>
<stop offset="48.10924%" style="stop-color:rgb(16,115,13);stop-opacity: 1"/>
<stop offset="65.99421%" style="stop-color:rgb(14,101,11);stop-opacity: 1"/>
<stop offset="80.72626000000001%" style="stop-color:rgb(13,92,10);stop-opacity: 1"/>
</linearGradient>
<path style="stroke: none; stroke-width: 1; stroke-dasharray: none; stroke-linecap: butt; stroke-dashoffset: 0; stroke-linejoin: miter; stroke-miterlimit: 4; fill: url(#SVGID_84_399983); fill-rule: nonzero; opacity: 1;"  paint-order="stroke"  transform=" translate(-297.80113633414066, -485.0649818456526)" d="M 330.3291016 496.5491943 C 321.6963807 504.5146484 311.0284729 510.0354004 299.7287903 513.4160766 C 290.3241272 516.217041 280.44824220000004 517.5829467 270.6123657 518.2001953 C 266.6018677 518.4526367 262.59133909999997 518.5551147 258.5708313 518.4972534 C 259.563446 518.2888183 260.58609010000004 518.0413208 261.638916 517.7747803 C 278.64312739999997 513.4459229 300.3552856 508.8478394 305.1351318 490.1564636 C 308.967102 475.1718139 291.0914917 469.099823 280.184906 476.2411194 C 280.184906 476.2411194 291.0965881 450.4230042 295.407959 451.6600647 C 303.3988953 453.9641724 332.51480100000003 466.28866580000005 335.6730652 473.99908450000004 C 338.8213196 481.6792297 336.2746887 491.0682068 330.3291016 496.5491943 z" stroke-linecap="round" />
</g>
		<g transform="matrix(0.6344162330776368 0 0 0.6344162330776368 -6.503302074634e-8 -2.960818970380757)"  >
<linearGradient id="SVGID_85_399984" gradientUnits="userSpaceOnUse" gradientTransform="matrix(1 0 0 1 0 0)"  x1="292.3028259" y1="344.9336548" x2="179.6691437" y2="456.141571">
<stop offset="0%" style="stop-color:rgb(161,244,159);stop-opacity: 1"/>
<stop offset="100%" style="stop-color:rgb(59,233,53);stop-opacity: 1"/>
</linearGradient>
<path style="stroke: none; stroke-width: 1; stroke-dasharray: none; stroke-linecap: butt; stroke-dashoffset: 0; stroke-linejoin: miter; stroke-miterlimit: 4; fill: url(#SVGID_85_399984); fill-rule: nonzero; opacity: 1;"  paint-order="stroke"  transform=" translate(-254.71195113495455, -376.10537160350464)" d="M 373.6028442 454.0670471 C 372.9628296 455.1270447 372.3027954 456.1770935 371.6328125 457.21707150000003 C 371.1428223 457.987091 370.6428223 458.74703980000004 370.1428223 459.49703980000004 C 370.10284429999996 459.54708860000005 370.072815 459.59707640000005 370.0428467 459.64706420000005 C 369.5527954 460.38705440000007 369.0527954 461.1070862 368.5428467 461.82705690000006 C 368.3428345 462.12704470000006 368.1228028 462.42709350000007 367.91284179999997 462.72708130000007 C 367.43280029999994 463.39706420000005 366.9528198 464.05703740000007 366.46282959999996 464.7170715000001 C 366.0428467 465.2870788000001 365.62280269999997 465.8470764000001 365.1928101 466.4070739000001 C 364.7728272 466.9670715000001 364.3428345 467.5270690000001 363.90283209999996 468.0770568000001 C 363.3428345 468.7970885000001 362.77282719999994 469.5170592000001 362.1928101 470.21707140000007 C 361.6428223 470.8970641000001 361.08282469999995 471.5570372000001 360.5228272 472.21707140000007 C 360.4628296 472.2970885000001 360.3928223 472.37704450000007 360.33282479999997 472.4470519000001 C 359.8728028 472.9870910000001 359.4128419 473.51705920000006 358.93280039999996 474.0470885000001 C 357.95281989999995 475.1770934000001 356.95281989999995 476.2770690000001 355.93280039999996 477.35708610000006 C 355.33282479999997 477.9970397000001 354.7328492 478.62704460000003 354.1228028 479.2470397000001 C 354.1028443 479.26705920000006 354.08282479999997 479.2970885000001 354.0527955 479.31704700000006 C 353.4128419 479.98709090000006 352.7528077 480.6470641000001 352.0828248 481.28707870000005 C 351.9228517 481.45706160000003 351.7528077 481.61703480000006 351.5928346 481.7770689000001 C 351.0128175 482.34707620000006 350.4228517 482.9070738000001 349.8328248 483.4570616000001 C 348.23284920000003 484.96707140000007 346.5928346 486.4270933000001 344.9328004 487.84707620000006 C 344.1528321 488.51705910000004 343.3528443 489.1770933000001 342.5527955 489.82705670000007 C 341.7528077 490.48709090000006 340.9428101 491.12704450000007 340.1328126 491.7570494000001 C 340.12280280000004 491.76705920000006 340.11279310000003 491.7770689000001 340.1028443 491.7870787000001 C 331.072815 498.8170470000001 321.2628174 504.6270445000001 310.9528199 509.17709330000014 C 316.9927979 503.61703470000015 321.8027955 496.50704940000014 323.612793 488.50704940000014 C 325.80279540000004 478.8770445000001 324.072815 464.88705430000016 312.4628296 462.7170714000001 C 303.8328247 461.09707630000014 294.112793 466.2370909000001 287.7128296 471.32705680000015 C 263.55279540000004 490.53707880000013 232.02284240000003 500.94705190000013 201.15284730000002 497.16708370000015 C 187.01283270000002 495.4370422000001 172.96284490000002 490.62704460000015 161.11280820000002 482.41708370000015 C 148.32283020000003 473.57705680000015 139.2828521 461.1770935000001 132.09284970000002 447.5870666000001 C 131.81282040000002 447.0870666000001 131.55281060000002 446.5870666000001 131.29286190000002 446.0870666000001 C 130.12281800000002 443.8370666000001 129.02284240000003 441.5470886000001 127.98286430000002 439.23709100000013 C 120.30281060000002 422.14706410000014 116.14283740000002 403.56704710000014 115.73286430000002 384.8670348000001 C 115.53285210000001 376.14706410000014 116.15284720000001 367.39706410000014 117.62281790000002 358.7670592000001 C 120.54286180000001 341.55703720000014 126.76283250000002 324.9770812000001 135.80281060000002 310.04708850000014 C 147.50282280000002 290.72708120000016 163.16285700000003 275.27706900000015 181.11280820000002 264.09707630000014 C 223.01283260000002 237.99703970000013 277.3928222 235.22708120000013 323.0028076 260.99703970000013 C 306.6028442 253.76705920000012 287.91284179999997 250.33706660000013 271.06280519999996 255.87704460000012 C 270.10284429999996 256.1870422000001 269.16284179999997 256.53707880000013 268.22283939999994 256.9170837000001 C 256.45281989999995 261.7070617000001 247.74281319999994 274.7170715000001 253.70283509999993 287.3170471000001 C 259.7128295999999 299.9970398000001 276.83282469999995 300.12704470000006 288.7528075999999 300.82705690000006 C 307.03283689999995 301.9070740000001 326.0928344999999 302.13705450000003 343.5428466999999 308.3170471000001 C 344.27282719999994 308.57705690000006 345.0028075999999 308.8470764000001 345.72283939999994 309.12704470000006 C 346.18280029999994 309.29708860000005 346.63281249999994 309.47708130000007 347.08282479999997 309.66708380000006 C 347.64282239999994 309.89706430000007 348.20281989999995 310.12704470000006 348.75280769999995 310.36703500000004 C 348.79284679999995 310.38705450000003 348.83282479999997 310.39706430000007 348.87280279999993 310.41708380000006 C 349.41284189999993 310.6570740000001 349.95281989999995 310.89706430000007 350.4828491999999 311.14706430000007 C 350.5028076999999 311.15707410000005 350.5328369999999 311.16708380000006 350.5628052999999 311.1770936000001 C 351.6127930999999 311.6670838000001 352.64282239999994 312.1770936000001 353.66284189999993 312.7170716000001 C 354.3128052999999 313.04708870000013 354.95281989999995 313.3970643000001 355.59283459999995 313.75704960000013 C 356.12280289999995 314.04708870000013 356.64282239999994 314.3470765000001 357.16284189999993 314.65707400000014 C 357.69281019999994 314.9670716000001 358.21282969999993 315.28707890000015 358.74279799999994 315.61703490000014 C 358.7528077999999 315.61703490000014 358.7628174999999 315.6270447000001 358.77282729999996 315.6370544000001 C 359.29284679999995 315.9570617000001 359.8128053 316.2970886000001 360.33282489999993 316.6370544000001 C 361.02282729999996 317.07705680000015 361.7028199999999 317.5470886000001 362.37280289999995 318.03707880000013 C 362.71282979999995 318.27706900000015 363.05279559999997 318.51705930000014 363.39282239999994 318.76705930000014 C 363.96282969999993 319.1770935000001 364.52282729999996 319.60708620000014 365.08282479999997 320.04708860000017 C 365.50280769999995 320.3670349000002 365.9128419 320.69705200000016 366.322815 321.0370788000002 C 366.33282479999997 321.0370788000002 366.3528443 321.04708860000017 366.362793 321.05703730000016 C 366.84283450000004 321.45706170000017 367.3128052 321.84707640000016 367.7828369 322.2470397000002 C 368.2628174 322.65707390000017 368.72283930000003 323.0670470000002 369.19281 323.4870910000002 C 370.02282710000003 324.2370910000002 370.8428344 325.00704950000016 371.6428222 325.79708860000017 C 371.7427978 325.8870544000002 371.83282460000004 325.9770813000002 371.92285150000004 326.0770569000002 C 372.3728027 326.5170593000002 372.81280510000005 326.96707150000015 373.24279780000006 327.4270935000002 C 374.0428466000001 328.2670593000002 374.83282470000006 329.12704470000017 375.5928344000001 330.0070496000002 C 376.14282220000007 330.62704470000017 376.6828002000001 331.26705940000016 377.2028198000001 331.91708380000017 C 377.5527954000001 332.33706670000015 377.8928222000001 332.76705940000016 378.2228393000001 333.1970521000002 C 378.6228027000001 333.70706190000016 379.0128173000001 334.21707160000017 379.39282220000007 334.7370912000002 C 379.7728271000001 335.25704970000015 380.15283200000005 335.7770692000002 380.5228271000001 336.3070375000002 C 380.83282470000006 336.74703990000023 381.1328125000001 337.1770937000002 381.4328002000001 337.6270448000002 C 381.8627929000001 338.26705940000016 382.2828368000001 338.9070741000002 382.69281000000007 339.5670472000002 C 382.91284170000006 339.89706430000024 383.1228027000001 340.2370911000002 383.31280510000005 340.5770570000002 C 383.55279530000007 340.9570619000002 383.78283680000004 341.3370668000002 384.0028075000001 341.71707160000017 C 385.26281730000005 343.83706670000015 386.4328002000001 346.0470887000002 387.52282700000006 348.33706670000015 C 387.43280010000007 348.2270813000001 387.34283430000005 348.11703500000016 387.2528075000001 348.01705940000016 C 390.41284170000006 354.9470521000002 392.41284170000006 362.37704480000014 393.1828002000001 369.97708140000015 C 393.24279780000006 370.6470643000001 393.30279530000007 371.31704720000016 393.3528441000001 371.9870912000001 C 393.3528441000001 372.0370790000001 393.3627928000001 372.07705700000014 393.3627928000001 372.12704480000014 L 393.37280260000006 372.25704970000015 C 395.3528442 399.9570618 389.0828247 428.5170593 373.6028442 454.0670471 z" stroke-linecap="round" />
</g>
		<g transform="matrix(0.6344162330776368 0 0 0.6344162330776368 -34.26588997501278 7.799894162975505)"  >
<linearGradient id="SVGID_86_399985" gradientUnits="userSpaceOnUse" gradientTransform="matrix(1 0 0 1 0 0)"  x1="227.5781403" y1="339.0796814" x2="161.637558" y2="412.1489868">
<stop offset="0%" style="stop-color:rgb(126,240,122);stop-opacity: 1"/>
<stop offset="97.44262%" style="stop-color:rgb(23,165,18);stop-opacity: 1"/>
</linearGradient>
<path style="stroke: none; stroke-width: 1; stroke-dasharray: none; stroke-linecap: butt; stroke-dashoffset: 0; stroke-linejoin: miter; stroke-miterlimit: 4; fill: url(#SVGID_86_399985); fill-rule: nonzero; opacity: 1;"  paint-order="stroke"  transform=" translate(-200.70026586682783, -393.06696964010393)" d="M 282.4828491 363.9970398 C 280.67285150000004 364.8370667 278.6127929 364.88705439999995 276.6127929 364.88705439999995 C 258.7028198 364.85708609999995 240.78285209999999 361.9470519999999 222.952835 363.54708859999994 C 214.8928374 364.2670592999999 206.952835 365.89706419999993 199.0628204 367.64706419999993 C 191.14283749999998 369.39706419999993 183.1828155 371.2870787999999 175.8628082 374.7870787999999 C 161.122818 381.8370665999999 149.98286439999998 395.0870665999999 142.9728546 409.8470763999999 C 137.33284 421.7270812999999 134.162857 434.5770568999999 132.09284970000002 447.5870665999999 C 131.81282040000002 447.0870665999999 131.55281060000002 446.5870665999999 131.29286190000002 446.0870665999999 C 130.12281800000002 443.8370665999999 129.02284240000003 441.5470885999999 127.98286430000002 439.2370909999999 C 120.30281060000002 422.1470640999999 116.14283740000002 403.5670470999999 115.73286430000002 384.8670347999999 C 120.03285210000001 372.8470762999999 126.94282520000002 362.0070493999999 136.85285940000003 353.9570616999999 C 157.15284720000002 337.46707149999986 182.91285700000003 336.4370421999999 207.66285700000003 340.6470640999999 C 208.10285940000003 340.72708119999993 208.55281060000004 340.7970884999999 208.99281310000003 340.8770445999999 C 232.76283260000002 345.00704949999994 256.0728149 351.31704699999995 279.89282230000003 355.3470762999999 C 284.2628174 356.0870667 288.9528198 360.9970398 282.4828491 363.9970398 z" stroke-linecap="round" />
</g>
		<g transform="matrix(0.6344162330776368 0 0 0.6344162330776368 -4.555754590165122 21.18614907408417)"  >
<linearGradient id="SVGID_87_399986" gradientUnits="userSpaceOnUse" gradientTransform="matrix(1 0 0 1 0 0)"  x1="230.4346619" y1="348.8701172" x2="259.4247742" y2="471.4839783">
<stop offset="0%" style="stop-color:rgb(32,225,25);stop-opacity: 1"/>
<stop offset="10.24624%" style="stop-color:rgb(29,207,23);stop-opacity: 1"/>
<stop offset="36.56626%" style="stop-color:rgb(25,179,20);stop-opacity: 1"/>
<stop offset="60.77829%" style="stop-color:rgb(23,161,18);stop-opacity: 1"/>
<stop offset="80.72626000000001%" style="stop-color:rgb(22,156,17);stop-opacity: 1"/>
</linearGradient>
<path style="stroke: none; stroke-width: 1; stroke-dasharray: none; stroke-linecap: butt; stroke-dashoffset: 0; stroke-linejoin: miter; stroke-miterlimit: 4; fill: url(#SVGID_87_399986); fill-rule: nonzero; opacity: 1;"  paint-order="stroke"  transform=" translate(-247.53093292072703, -414.1670837500001)" d="M 369.5728149 446.5470886 C 368.6228027 454.0070495 366.67285150000004 461.197052 363.90283200000005 468.0770569 C 356.86279290000004 477.0570374 348.85284420000005 484.9770813 340.13281250000006 491.7570496 C 340.1228027000001 491.7670594 340.11279300000007 491.7770691 340.10284420000005 491.78707890000004 C 331.0728149 498.81704720000005 321.26281730000005 504.62704470000006 310.95281980000004 509.17709350000007 C 316.99279780000006 503.6170349000001 321.80279540000004 496.5070496000001 323.61279290000004 488.5070496000001 C 325.80279530000007 478.87704470000006 324.0728149 464.8870545000001 312.46282950000005 462.71707160000005 C 305.28283680000004 461.36703500000004 297.3528441000001 464.69705210000006 291.21282950000005 468.7770692 C 289.96282950000005 469.60708630000005 288.7928466000001 470.46707160000005 287.71282950000005 471.327057 C 263.55279530000007 490.537079 232.02284230000006 500.9470521 201.15284720000005 497.1670839 C 187.01283260000005 495.4370424 172.96284480000006 490.6270448 161.11280810000005 482.4170839 C 147.85285940000006 473.24704 138.62281790000006 460.25704970000004 131.29286180000005 446.0870668 C 130.12281790000006 443.8370668 129.02284230000006 441.5470888 127.98286420000005 439.2370912 C 127.93281540000005 439.0270692 127.87281780000005 438.827057 127.82283000000005 438.6270448 C 120.50282270000005 411.6470643 128.03285200000005 381.1870424 152.09284950000006 365.3970643 C 174.31282020000006 350.8170472 201.84284950000006 349.8770448 227.49281290000005 351.577057 C 228.23286420000005 351.6270448 228.98286420000005 351.67709360000003 229.72285440000005 351.72708140000003 C 249.75282270000005 353.0470887 269.77282690000004 354.36703500000004 289.80279520000005 355.68704230000003 C 296.91284160000004 356.157074 304.2328489 356.6070862 311.02282690000004 354.3970643 C 317.80279520000005 352.18704230000003 324.00280740000005 346.6670838 324.81280490000006 339.58706670000004 C 325.7427976000001 331.51705940000005 318.32281470000004 323.24703980000004 310.36279270000006 321.63705450000003 C 308.95281960000005 321.3470765 308.65283180000006 320.0470887 307.51281710000006 319.157074 C 318.13281220000005 319.23709110000004 328.72283910000004 322.23709110000004 337.81280490000006 327.74703980000004 C 344.90283180000006 332.04708860000005 351.31280490000006 338.22708130000007 353.6428220000001 346.18704220000006 C 355.95281960000005 354.09707640000005 353.96282930000007 362.54708860000005 351.96282930000007 370.54708860000005 C 350.67285130000005 375.69705200000004 349.2928464000001 381.0370788000001 345.88281220000005 385.1070862 C 342.142822 389.5670471 335.88281220000005 392.79708860000005 335.41284150000007 398.59707640000005 C 335.1428220000001 401.8570862 336.8928220000001 404.907074 338.5928342000001 407.7070618 C 339.0428464000001 408.4570618 339.5028073000001 409.2170716 339.96282930000007 409.9770813 C 344.9528195000001 418.2370911 354.86279270000006 420.4770813 362.0527951000001 426.91708370000003 C 364.7728268000001 429.35708610000006 367.4927975000001 432.00704950000005 368.8428342000001 435.41708370000003 C 370.2328491 438.907074 370.0428467 442.8170471 369.5728149 446.5470886 z" stroke-linecap="round" />
</g>
		<g transform="matrix(0.6344162330776368 0 0 0.6344162330776368 30.02988774383698 13.974358943094245)"  >
<linearGradient id="SVGID_88_399987" gradientUnits="userSpaceOnUse" gradientTransform="matrix(1 0 0 1 0 0)"  x1="295.3981018" y1="347.9333191" x2="311.5565186" y2="487.1808472">
<stop offset="0%" style="stop-color:rgb(46,231,39);stop-opacity: 1"/>
<stop offset="41.235260000000004%" style="stop-color:rgb(27,193,21);stop-opacity: 1"/>
<stop offset="75.04672%" style="stop-color:rgb(23,161,18);stop-opacity: 1"/>
<stop offset="96.88396%" style="stop-color:rgb(21,151,17);stop-opacity: 1"/>
</linearGradient>
<path style="stroke: none; stroke-width: 1; stroke-dasharray: none; stroke-linecap: butt; stroke-dashoffset: 0; stroke-linejoin: miter; stroke-miterlimit: 4; fill: url(#SVGID_88_399987); fill-rule: nonzero; opacity: 1;"  paint-order="stroke"  transform=" translate(-302.04662865918976, -402.7994834980257)" d="M 373.6028442 454.0670471 C 373.32281489999997 454.5270691 373.0428466 454.987091 372.7528076 455.44705200000004 C 372.3828125 456.04708860000005 372.01281739999996 456.62704470000006 371.6328125 457.21707150000003 C 371.1428223 457.987091 370.6428223 458.74703980000004 370.1428223 459.49703980000004 C 370.10284429999996 459.54708860000005 370.072815 459.59707640000005 370.0428467 459.64706420000005 C 369.5527954 460.38705440000007 369.0527954 461.1070862 368.5428467 461.82705690000006 C 368.3428345 462.12704470000006 368.1228028 462.42709350000007 367.91284179999997 462.72708130000007 C 367.43280029999994 463.39706420000005 366.9528198 464.05703740000007 366.46282959999996 464.7170715000001 C 366.0428467 465.2870788000001 365.62280269999997 465.8470764000001 365.1928101 466.4070739000001 C 364.7728272 466.9670715000001 364.3428345 467.5270690000001 363.90283209999996 468.0770568000001 C 363.3428345 468.7970885000001 362.77282719999994 469.5170592000001 362.1928101 470.21707140000007 C 361.6428223 470.8970641000001 361.08282469999995 471.5570372000001 360.5228272 472.21707140000007 C 360.4628296 472.2970885000001 360.3928223 472.37704450000007 360.33282479999997 472.4470519000001 C 359.8728028 472.9870910000001 359.4128419 473.51705920000006 358.93280039999996 474.0470885000001 C 357.95281989999995 475.1770934000001 356.95281989999995 476.2770690000001 355.93280039999996 477.35708610000006 C 355.33282479999997 477.9970397000001 354.7328492 478.62704460000003 354.1228028 479.2470397000001 C 354.1028443 479.26705920000006 354.08282479999997 479.2970885000001 354.0527955 479.31704700000006 C 353.4028321 479.98709090000006 352.7528077 480.6470641000001 352.0828248 481.28707870000005 C 351.9228517 481.45706160000003 351.7528077 481.61703480000006 351.5928346 481.7770689000001 C 351.0128175 482.34707620000006 350.4228517 482.9070738000001 349.8328248 483.4570616000001 C 348.23284920000003 484.96707140000007 346.5928346 486.4270933000001 344.9328004 487.84707620000006 C 344.1528321 488.51705910000004 343.3528443 489.1770933000001 342.5527955 489.82705670000007 C 341.7528077 490.48709090000006 340.9428101 491.12704450000007 340.1328126 491.7570494000001 C 353.46282970000004 480.62704450000007 362.1828004 457.8170470000001 351.53283700000003 442.1870421000001 C 342.0028077 428.1970519000001 322.21282970000004 428.4770812000001 307.9028321 433.7470397000001 C 282.0028077 443.2870788000001 255.5928498 475.15707390000006 225.8928376 458.88705430000005 C 204.9828645 447.42709340000005 207.2028352 424.76705920000006 220.6728669 410.38705430000005 C 224.3828278 406.42709340000005 228.9428254 403.0970763 234.1128083 400.8070372 C 266.2728272 386.5070494 325.8128052 412.15707380000003 342.2928468 368.9670714 C 348.5128175 352.6770934 341.0828248 333.1870421 324.90283220000003 326.2170714 C 310.912842 320.1870421 291.56280530000004 316.45706160000003 257.9628298 325.4770812 C 258.07281520000004 325.3670348 258.1828005 325.2570495 258.3027956 325.1570739 C 262.28283710000005 321.3970641 266.94281020000005 320.0770568 272.2628176 318.5170593 C 301.65283220000003 309.9270935 334.3528445 313.2870788 361.3828127 327.66708370000003 C 370.6228029 332.57705680000004 379.2728273 338.77706910000006 386.1228029 346.6770935 C 386.5028078 347.1170349 386.8828127 347.5670471 387.2528078 348.0170593 C 390.412842 354.94705200000004 392.412842 362.37704470000006 393.18280050000004 369.9770813 C 393.15283220000003 369.5370789 393.11279320000006 369.0970764 393.0728151 368.657074 C 393.18280050000004 369.76705940000005 393.2728273 370.8770447 393.35284440000004 371.98709110000004 C 393.35284440000004 372.03707890000004 393.36279310000003 372.07705690000006 393.36279310000003 372.12704470000006 L 393.3728029 372.2570496000001 C 395.3528442 399.9570618 389.0828247 428.5170593 373.6028442 454.0670471 z" stroke-linecap="round" />
</g>
		<g transform="matrix(0.6344162330776368 0 0 0.6344162330776368 16.273825891286208 -46.39356666164838)"  >
<linearGradient id="SVGID_89_399988" gradientUnits="userSpaceOnUse" gradientTransform="matrix(1 0 0 1 0 0)"  x1="262.5332336" y1="237.8269958" x2="281.5431213" y2="338.5794678">
<stop offset="0%" style="stop-color:rgb(130,241,126);stop-opacity: 1"/>
<stop offset="97.44263%" style="stop-color:rgb(41,231,35);stop-opacity: 1"/>
</linearGradient>
<path style="stroke: none; stroke-width: 1; stroke-dasharray: none; stroke-linecap: butt; stroke-dashoffset: 0; stroke-linejoin: miter; stroke-miterlimit: 4; fill: url(#SVGID_89_399988); fill-rule: nonzero; opacity: 1;"  paint-order="stroke"  transform=" translate(-280.3636055344215, -307.64440634640584)" d="M 393.3728027 372.2570496 C 392.70281980000004 369.6670838 391.8828125 367.1470642 390.8928222 364.7070618 C 387.5928344 356.4770813 382.43280020000003 349.0570374 375.0028076 342.2270813 C 357.4228515 326.08706670000004 332.2728271 318.33706670000004 308.7528076 317.5370789 C 291.23284909999995 316.947052 274.8828125 320.9170838 258.3027954 325.15707399999997 C 254.12281799999997 326.22708129999995 249.92286679999998 327.31704709999997 245.69282529999998 328.3470764 C 226.3628082 333.06704709999997 205.89283749999998 335.3370666 187.8228302 325.1770935 C 171.0428619 315.74703980000004 161.8228302 294.96707150000003 170.9428253 277.0870666 C 171.20283510000002 276.5870666 171.4628448 276.0970764 171.7328644 275.6070861 C 175.3828278 269.1370544 180.9428253 263.9670715 187.4428253 260.3770446 C 208.662857 248.6770934 232.65284730000002 242.68704219999998 256.862793 243.04708849999997 C 279.39282230000003 243.37704459999998 302.112793 249.19705189999996 323.0028076 260.99703969999996 C 306.6028442 253.76705919999995 287.91284179999997 250.33706659999996 271.06280519999996 255.87704459999995 C 270.10284429999996 256.18704219999995 269.16284179999997 256.53707879999996 268.22283939999994 256.9170836999999 C 256.45281989999995 261.70706169999994 247.74281319999994 274.7170714999999 253.70283509999993 287.3170470999999 C 259.7128295999999 299.9970397999999 276.83282469999995 300.1270446999999 288.7528075999999 300.8270568999999 C 307.03283689999995 301.9070739999999 326.0928344999999 302.13705449999986 343.5428466999999 308.3170470999999 C 344.27282719999994 308.5770568999999 345.0028075999999 308.84707639999993 345.72283939999994 309.1270446999999 C 346.18280029999994 309.2970885999999 346.63281249999994 309.4770812999999 347.08282479999997 309.6670837999999 C 347.64282239999994 309.8970642999999 348.20281989999995 310.1270446999999 348.75280769999995 310.3670349999999 C 348.79284679999995 310.38705449999986 348.83282479999997 310.3970642999999 348.87280279999993 310.4170837999999 C 349.41284189999993 310.6570739999999 349.95281989999995 310.8970642999999 350.4828491999999 311.1470642999999 C 350.5028076999999 311.1570740999999 350.5328369999999 311.1670837999999 350.5628052999999 311.1770935999999 C 351.6127930999999 311.66708379999994 352.64282239999994 312.1770935999999 353.66284189999993 312.71707159999994 C 354.3128052999999 313.04708869999996 354.95281989999995 313.39706429999995 355.59283459999995 313.75704959999996 C 356.12280289999995 314.04708869999996 356.64282239999994 314.34707649999996 357.16284189999993 314.65707399999997 C 357.69281019999994 314.96707159999994 358.21282969999993 315.2870789 358.74279799999994 315.61703489999996 C 358.7528077999999 315.61703489999996 358.7628174999999 315.62704469999994 358.77282729999996 315.63705439999995 C 359.29284679999995 315.95706169999994 359.8128053 316.29708859999994 360.33282489999993 316.63705439999995 C 361.02282729999996 317.0770568 361.7028199999999 317.54708859999994 362.37280289999995 318.03707879999996 C 362.71282979999995 318.277069 363.05279559999997 318.51705929999997 363.39282239999994 318.76705929999997 C 363.96282969999993 319.17709349999996 364.52282729999996 319.60708619999997 365.08282479999997 320.0470886 C 365.50280769999995 320.3670349 365.9128419 320.697052 366.322815 321.0370788 C 366.33282479999997 321.0370788 366.3528443 321.0470886 366.362793 321.0570373 C 366.84283450000004 321.4570617 367.3128052 321.8470764 367.7828369 322.2470397 C 368.2628174 322.6570739 368.72283930000003 323.067047 369.19281 323.487091 C 370.02282710000003 324.237091 370.8428344 325.0070495 371.6428222 325.7970886 C 371.7427978 325.8870544 371.83282460000004 325.9770813 371.92285150000004 326.0770569 C 372.3728027 326.5170593 372.81280510000005 326.9670715 373.24279780000006 327.4270935 C 374.0428466000001 328.2670593 374.83282470000006 329.1270447 375.5928344000001 330.0070496 C 376.14282220000007 330.6270447 376.6828002000001 331.2670594 377.2028198000001 331.9170838 C 377.5527954000001 332.3370667 377.8928222000001 332.7670594 378.2228393000001 333.1970521 C 378.6228027000001 333.7070619 379.0128173000001 334.2170716 379.39282220000007 334.7370912 C 379.7728271000001 335.2570497 380.15283200000005 335.7770692 380.5228271000001 336.30703750000004 C 380.83282470000006 336.74703990000006 381.1328125000001 337.17709370000006 381.4328002000001 337.6270448 C 381.8627929000001 338.2670594 382.2828368000001 338.90707410000005 382.69281000000007 339.56704720000005 C 382.73284910000007 339.6270448 382.7728271000001 339.68704230000003 382.81280510000005 339.74703990000006 C 382.98284900000004 340.01705940000005 383.15283200000005 340.2970887000001 383.31280510000005 340.5770570000001 C 383.55279530000007 340.9570619000001 383.78283680000004 341.33706680000006 384.0028075000001 341.71707160000005 C 385.2028197000001 343.76705940000005 386.2928466000001 345.86703500000004 387.2528075000001 348.01705940000005 C 390.41284170000006 354.94705210000006 392.41284170000006 362.3770448 393.1828002000001 369.97708140000003 C 393.24279780000006 370.6470643 393.30279530000007 371.31704720000005 393.3528441000001 371.9870912 C 393.3528441000001 372.037079 393.3627928000001 372.077057 393.3627928000001 372.1270448 L 393.3728027 372.2570496 z" stroke-linecap="round" />
</g>
		<g transform="matrix(0.6344162330776368 0 0 0.6344162330776368 15.487156011269803 -48.78848407157744)"  >
<linearGradient id="SVGID_90_399989" gradientUnits="userSpaceOnUse" gradientTransform="matrix(1 0 0 1 0 0)"  x1="269.5745239" y1="319.7362671" x2="198.2873993" y2="241.7956543">
<stop offset="0%" style="stop-color:rgb(130,241,126);stop-opacity: 1"/>
<stop offset="97.44263%" style="stop-color:rgb(41,231,35);stop-opacity: 1"/>
</linearGradient>
<path style="stroke: none; stroke-width: 1; stroke-dasharray: none; stroke-linecap: butt; stroke-dashoffset: 0; stroke-linejoin: miter; stroke-miterlimit: 4; fill: url(#SVGID_90_399989); fill-rule: nonzero; opacity: 1;"  paint-order="stroke"  transform=" translate(-279.12361538442144, -303.8694124464059)" d="M 390.8928223 364.7070618 C 387.5928345 356.4770813 382.4328003 349.0570374 375.00280769999995 342.2270813 C 357.42285159999994 326.08706670000004 332.27282719999994 318.33706670000004 308.75280769999995 317.5370789 C 291.2328491999999 316.947052 274.88281259999997 320.9170838 258.30279549999995 325.15707399999997 C 254.12281809999993 326.22708129999995 249.92286689999995 327.31704709999997 245.69282539999995 328.3470764 C 226.36280829999995 333.06704709999997 205.89283759999995 335.3370666 187.82283029999996 325.1770935 C 171.04286199999996 315.74703980000004 161.82283029999996 294.96707150000003 170.94282539999998 277.0870666 C 171.20283519999998 276.5870666 171.46284489999996 276.0970764 171.73286449999998 275.6070861 C 175.38282789999997 269.1370544 180.94282539999998 263.9670715 187.44282539999998 260.3770446 C 208.66285709999997 248.6770934 232.65284739999998 242.68704219999998 256.8627931 243.04708849999997 C 251.45283519999998 243.83706649999996 246.07283029999996 245.19705189999996 240.8528596 246.71707139999998 C 225.01856999999998 251.32400499999997 210.84573369999998 258.3786315 201.87454229999997 272.8090514 C 196.65333559999996 281.20751939999997 196.15141299999996 290.5430907 200.43727119999997 299.53781119999996 C 210.62481699999998 320.9180297 241.28048709999996 316.05044549999997 259.979004 313.69128409999996 C 271.62042249999996 312.2225036 283.2174684 310.28387439999995 294.92559819999997 309.3991698 C 315.92559819999997 307.8091429 339.3988038 313.25567609999996 357.65881349999995 323.73565659999997 C 372.8588257 332.4556274 384.7096558 344.9837036 390.8928223 364.7070618 z" stroke-linecap="round" />
</g>
		<g transform="matrix(0.6344162330776368 0 0 0.6344162330776368 -29.28458484964284 27.70694995336862)"  >
<linearGradient id="SVGID_91_399990" gradientUnits="userSpaceOnUse" gradientTransform="matrix(1 0 0 1 0 0)"  x1="187.0752258" y1="370.305481" x2="218.9168091" y2="485.7906189">
<stop offset="0%" style="stop-color:rgb(29,207,23);stop-opacity: 1"/>
<stop offset="8.04149%" style="stop-color:rgb(26,188,21);stop-opacity: 1"/>
<stop offset="28.59347%" style="stop-color:rgb(21,147,16);stop-opacity: 1"/>
<stop offset="48.10924%" style="stop-color:rgb(16,115,13);stop-opacity: 1"/>
<stop offset="65.99421%" style="stop-color:rgb(14,101,11);stop-opacity: 1"/>
<stop offset="80.72626000000001%" style="stop-color:rgb(13,92,10);stop-opacity: 1"/>
</linearGradient>
<path style="stroke: none; stroke-width: 1; stroke-dasharray: none; stroke-linecap: butt; stroke-dashoffset: 0; stroke-linejoin: miter; stroke-miterlimit: 4; fill: url(#SVGID_91_399990); fill-rule: nonzero; opacity: 1;"  paint-order="stroke"  transform=" translate(-208.55205916222474, -424.4455106553949)" d="M 291.9628296 467.4670715 C 291.7228394 467.9070739 291.4728394 468.3470764 291.2128296 468.77706909999995 C 289.9628296 469.60708619999997 288.79284670000004 470.4670715 287.7128296 471.32705689999995 C 263.55279540000004 490.5370788999999 232.02284240000003 500.9470519999999 201.15284730000002 497.16708379999994 C 187.01283270000002 495.4370422999999 172.96284490000002 490.62704469999994 161.11280820000002 482.41708379999994 C 147.85285950000002 473.24703989999995 138.62281800000002 460.25704959999996 131.29286190000002 446.0870666999999 C 130.12281800000002 443.8370666999999 129.02284240000003 441.5470886999999 127.98286430000002 439.23709109999993 C 127.93281550000002 439.02706909999995 127.87281790000002 438.82705689999995 127.82283010000002 438.62704469999994 C 120.50282280000002 411.64706419999993 128.0328521 381.1870422999999 152.09284960000002 365.39706419999993 C 174.31282030000003 350.8170470999999 201.84284960000002 349.87704469999994 227.492813 351.57705689999995 C 228.23286430000002 351.62704469999994 228.98286430000002 351.67709349999996 229.7228545 351.72708129999995 C 226.23286430000002 351.9970397999999 222.75282280000002 352.72708129999995 219.32276910000002 353.47708129999995 C 201.3405456 357.40887449999997 181.9950561 363.2549743999999 169.3769225 377.48541259999996 C 158.0905608 390.21389769999996 153.8637084 407.5668335 155.5538482 424.2644959 C 157.7703552 446.1625672 171.6425018 463.36343389999996 191.4396056 472.3642273 C 218.67776479999998 484.7478638 253.6420592 483.7364502 281.3211669 473.3239746 C 283.4211426 472.5339966 290.8528442 469.4670715 291.9628296 467.4670715 z" stroke-linecap="round" />
</g>
		<g transform="matrix(0.6344162330776368 0 0 0.6344162330776368 16.12585595884582 -40.89257712641236)"  >
<linearGradient id="SVGID_92_399991" gradientUnits="userSpaceOnUse" gradientTransform="matrix(1 0 0 1 0 0)"  x1="327.776001" y1="315.466156" x2="160.4888611" y2="319.2681274">
<stop offset="0%" style="stop-color:rgb(255,255,255);stop-opacity: 1"/>
<stop offset="92.37704%" style="stop-color:rgb(161,244,159);stop-opacity: 1"/>
</linearGradient>
<path style="stroke: none; stroke-width: 1; stroke-dasharray: none; stroke-linecap: butt; stroke-dashoffset: 0; stroke-linejoin: miter; stroke-miterlimit: 4; fill: url(#SVGID_92_399991); fill-rule: nonzero; opacity: 1;"  paint-order="stroke"  transform=" translate(-280.1303675989377, -316.31535335)" d="M 393.3766479 372.2523193 C 382.3714294 333.1846923 337.0109863 316.82943720000003 299.81750480000005 318.5281067 C 283.81405630000006 319.3091736 267.82992550000006 323.7978211 252.27375790000005 327.68771360000005 C 230.63273620000004 333.4902344000001 205.48377990000006 337.56176760000005 185.54174800000004 324.65832520000004 C 177.20983880000003 319.3538818 170.81628410000005 310.93771360000005 168.13844290000003 301.40435790000004 C 163.42222590000003 284.71911620000003 172.47311390000004 268.13839720000004 187.44667040000002 260.37838740000007 C 169.35749800000002 270.6071777000001 162.0932463 291.5810546000001 173.05978380000002 309.8535461000001 C 174.87437430000003 312.9040222000001 177.2347411 315.75714110000007 179.75251760000003 318.2580566000001 C 180.30348200000003 318.7218933000001 181.87394700000004 320.1324157000001 182.45249930000003 320.6210937000001 C 185.56509390000002 323.0444030000001 189.07820120000002 325.14859000000007 192.72837820000004 326.6778869000001 C 208.36573780000003 333.6062927000001 226.10975640000004 331.9131469000001 242.37139880000004 328.1412963000001 C 261.3177489 323.6037902000001 280.07037340000005 317.64059440000005 299.72680650000007 316.7137450000001 C 337.3148499 315.057251 383.3930054 332.395813 393.3766479 372.2523193 L 393.3766479 372.2523193 z" stroke-linecap="round" />
</g>
		<g transform="matrix(0.6344162330776368 0 0 0.6344162330776368 23.499516128088146 44.056004460479926)"  >
<linearGradient id="SVGID_93_399992" gradientUnits="userSpaceOnUse" gradientTransform="matrix(1 0 0 1 0 0)"  x1="250.5004425" y1="383.5271912" x2="336.9954834" y2="493.3093567">
<stop offset="0%" style="stop-color:rgb(26,184,20);stop-opacity: 1"/>
<stop offset="26.38619%" style="stop-color:rgb(22,156,17);stop-opacity: 1"/>
<stop offset="54.63206%" style="stop-color:rgb(20,142,16);stop-opacity: 1"/>
<stop offset="84.81587%" style="stop-color:rgb(19,133,15);stop-opacity: 1"/>
</linearGradient>
<path style="stroke: none; stroke-width: 1; stroke-dasharray: none; stroke-linecap: butt; stroke-dashoffset: 0; stroke-linejoin: miter; stroke-miterlimit: 4; fill: url(#SVGID_93_399992); fill-rule: nonzero; opacity: 1;"  paint-order="stroke"  transform=" translate(-291.7531158591324, -450.21574422555426)" d="M 372.4136047 448.5544739 C 371.7253418 453.2125855 371.1759948 457.8777771 368.5428466 461.8270569 C 368.3428344 462.1270447 368.1228027 462.4270935 367.9128417 462.7270813 C 367.4328002 463.3970642 366.9528197 464.0570374 366.4628295 464.71707150000003 C 366.0428466 465.2870788 365.6228026 465.84707640000005 365.19281 466.40707390000006 C 364.77282710000003 466.96707150000003 364.3428344 467.52706900000004 363.902832 468.07705680000004 C 363.3428344 468.79708850000003 362.7728271 469.51705920000006 362.19281 470.2170714 C 361.6428222 470.8970641 361.0828246 471.5570372 360.52282710000003 472.2170714 C 360.46282950000005 472.29708850000003 360.3928222 472.3770445 360.3328247 472.4470519 C 359.8728027 472.987091 359.4128418 473.5170592 358.9328003 474.04708850000003 C 357.9528198 475.17709340000005 356.9528198 476.27706900000004 355.9328003 477.3570861 C 355.3328247 477.9970397 354.7328491 478.6270446 354.1228027 479.2470397 C 354.10284420000005 479.2670592 354.0828247 479.29708850000003 354.05279540000004 479.317047 C 353.40283200000005 479.9870909 352.75280760000004 480.6470641 352.08282470000006 481.2870787 C 351.92285160000006 481.4570616 351.75280760000004 481.6170348 351.59283450000004 481.7770689 C 351.0128174 482.3470762 350.42285160000006 482.90707380000003 349.83282470000006 483.45706160000003 C 348.23284910000007 484.9670714 346.59283450000004 486.4270933 344.93280030000005 487.8470762 C 344.15283200000005 488.5170591 343.35284420000005 489.1770933 342.55279540000004 489.8270567 C 341.75280760000004 490.4870909 340.94281 491.1270445 340.13281250000006 491.7570494 C 353.4628296000001 480.6270445 362.18280030000005 457.817047 351.53283690000006 442.18704210000004 C 342.00280760000004 428.1970519 322.2128296000001 428.47708120000004 307.90283200000005 433.7470397 C 282.00280760000004 443.2870788 255.59284970000004 475.1570739 225.89283750000004 458.88705430000005 C 204.98286440000004 447.42709340000005 207.20283510000004 424.76705920000006 220.67286680000004 410.38705430000005 C 220.01283260000002 412.33706650000005 219.14283750000004 414.1470641 217.85285950000005 415.66708360000007 C 214.06282040000005 420.12704450000007 217.04286190000005 427.12704450000007 221.24281310000006 431.1970519000001 C 235.90284730000008 445.3470763000001 253.90284730000008 439.06704700000006 270.13281250000006 431.86703480000006 C 280.86044310000005 427.10864250000003 291.51309200000003 422.17019640000007 302.30450440000004 417.55673210000003 C 312.8181458 413.0620422 322.85800170000005 409.91342160000005 334.3260498 408.8599242 C 345.5337524 407.83035270000005 359.0948181 411.0317382 366.5866699 419.8465575 C 373.4314575 427.9000549 373.9793701 437.9573364 372.4136047 448.5544739 z" stroke-linecap="round" />
</g>
		<g transform="matrix(0.6344162330776368 0 0 0.6344162330776368 26.948585482890735 -63.66950663514004)"  >
<linearGradient id="SVGID_94_399993" gradientUnits="userSpaceOnUse" gradientTransform="matrix(1 0 0 1 0 0)"  x1="264.3582153" y1="254.8651733" x2="312.8334656" y2="297.1622009">
<stop offset="0%" style="stop-color:rgb(255,255,255);stop-opacity: 1"/>
<stop offset="100%" style="stop-color:rgb(117,239,113);stop-opacity: 1"/>
</linearGradient>
<path style="stroke: none; stroke-width: 1; stroke-dasharray: none; stroke-linecap: butt; stroke-dashoffset: 0; stroke-linejoin: miter; stroke-miterlimit: 4; fill: url(#SVGID_94_399993); fill-rule: nonzero; opacity: 1;"  paint-order="stroke"  transform=" translate(-297.18971910944754, -280.41316749603186)" d="M 323.0066528 260.9922791 C 307.7025757 254.7628022 290.446289 251.35839850000002 274.2568969 255.76780710000003 C 274.2568969 255.76779180000003 271.47283930000003 256.62197890000004 271.47283930000003 256.62197890000004 L 268.7537841 257.62600720000006 C 262.61035150000004 260.1622621000001 257.2201537 264.8633424000001 254.5003661 270.97604380000007 C 252.1436614 276.07669080000005 252.1650847 282.26876840000006 254.8236846 287.26394660000005 C 262.0090636 301.24856570000003 283.5434569 299.12203990000006 296.9909362 300.50241100000005 C 312.6714172 301.5027772 328.7351684 302.65661630000005 343.5466308 308.31231700000006 C 336.0275268 305.92495740000004 328.2753906 304.43325820000007 320.45733640000003 303.6152650000001 C 308.73480220000005 302.2702943000001 296.87878420000004 302.15759290000005 285.0946655 301.4839173000001 C 277.1641235 301.04486090000006 268.9562988 300.4942933000001 261.6976318 296.7901612000001 C 252.6251068 292.2343140000001 248.45269770000002 281.0639344000001 252.21315 271.6329346000001 C 256.0529785 261.3160706000001 266.3513489 255.3108673000001 276.77719110000004 253.57650760000013 C 292.5130615 250.5492554 308.7437744 254.2918549 323.0066528 260.9922791 L 323.0066528 260.9922791 z" stroke-linecap="round" />
</g>
		<g transform="matrix(0.6344162330776368 0 0 0.6344162330776368 -23.33440194901243 8.599968540555295)"  >
<linearGradient id="SVGID_95_399994" gradientUnits="userSpaceOnUse" gradientTransform="matrix(1 0 0 1 0 0)"  x1="252.6461334" y1="336.6322937" x2="155.6956329" y2="436.4342957">
<stop offset="0%" style="stop-color:rgb(41,231,35);stop-opacity: 1"/>
<stop offset="98.88268%" style="stop-color:rgb(59,233,53);stop-opacity: 1"/>
</linearGradient>
<path style="stroke: none; stroke-width: 1; stroke-dasharray: none; stroke-linecap: butt; stroke-dashoffset: 0; stroke-linejoin: miter; stroke-miterlimit: 4; fill: url(#SVGID_95_399994); fill-rule: nonzero; opacity: 1;"  paint-order="stroke"  transform=" translate(-217.9310482082101, -394.32808865923505)" d="M 127.826622 438.6222534 C 122.1270828 419.009552 124.3874283 396.689331 136.2045746 379.7085571 C 145.0550232 366.8289489 159.288681 358.77355950000003 174.0441437 354.4586487 C 193.85165410000002 348.74630740000003 214.7269745 349.6560364 235.0273438 351.20266730000003 C 252.6674958 352.3854676 278.30316170000003 354.4919434 295.93127450000003 355.7512818 C 300.985901 355.9880982 306.1323853 355.8668214 311.02667240000005 354.392334 C 301.2449341 357.6695557 290.73092660000003 355.83547980000003 280.64917 355.5697632 C 269.6994935 354.9262695 245.44648750000002 353.6173096 234.91355900000002 352.92803960000003 C 205.3149414 350.7799683 172.19924930000002 350.38201910000004 147.75981140000002 369.6869507 C 127.5891113 385.9016113 121.6768951 414.2411194 127.826622 438.6222534 L 127.826622 438.6222534 z" stroke-linecap="round" />
</g>
		<g transform="matrix(0.6344162330776368 0 0 0.6344162330776368 9.987784496523773 26.13851819249635)"  >
<linearGradient id="SVGID_96_399995" gradientUnits="userSpaceOnUse" gradientTransform="matrix(1 0 0 1 0 0)"  x1="208.0166473" y1="417.9122009" x2="323.5018005" y2="424.5656738">
<stop offset="0%" style="stop-color:rgb(32,225,25);stop-opacity: 1"/>
<stop offset="98.88268%" style="stop-color:rgb(72,234,67);stop-opacity: 1"/>
</linearGradient>
<path style="stroke: none; stroke-width: 1; stroke-dasharray: none; stroke-linecap: butt; stroke-dashoffset: 0; stroke-linejoin: miter; stroke-miterlimit: 4; fill: url(#SVGID_96_399995); fill-rule: nonzero; opacity: 1;"  paint-order="stroke"  transform=" translate(-270.45521878922733, -421.9732666)" d="M 225.8966522 458.8823242 C 197.6164551 444.3553772 210.2302551 408.67288210000004 235.73107910000002 399.1216125 C 246.04710390000002 395.1645507 257.3280945 394.9269714 268.18121340000005 394.8760681 C 284.99743650000005 394.7493896 305.8566895 396.7317505 321.73129270000004 390.3866272 C 325.0618286 389.0345459 328.24615480000006 387.27960210000003 331.1134033 385.064209 C 325.6415405 389.8769531 318.6470947 392.663086 311.5795288 394.2924805 C 297.32702639999997 397.3803711 282.6338501 396.5593262 268.1890869 396.6963806 C 257.4569092 396.8393249 246.5385132 397.2015686 236.41567990000001 400.9015198 C 211.7320862 410.1530762 199.3863831 443.6842346 225.8966522 458.8823242 L 225.8966522 458.8823242 z" stroke-linecap="round" />
</g>
		<g transform="matrix(0.6344162330776368 0 0 0.6344162330776368 -7.398492025505675 66.3614799240429)"  >
<linearGradient id="SVGID_97_399996" gradientUnits="userSpaceOnUse" gradientTransform="matrix(1 0 0 1 0 0)"  x1="167.6261139" y1="438.9968567" x2="264.5765991" y2="486.0463562">
<stop offset="0%" style="stop-color:rgb(22,156,17);stop-opacity: 1"/>
<stop offset="98.76889%" style="stop-color:rgb(30,211,23);stop-opacity: 1"/>
</linearGradient>
<path style="stroke: none; stroke-width: 1; stroke-dasharray: none; stroke-linecap: butt; stroke-dashoffset: 0; stroke-linejoin: miter; stroke-miterlimit: 4; fill: url(#SVGID_97_399996); fill-rule: nonzero; opacity: 1;"  paint-order="stroke"  transform=" translate(-243.05006170854182, -485.3747995910768)" d="M 310.956665 509.1723022 C 317.4324646 502.9112243 322.5498962 494.7846374 323.6117248 485.7399292 C 325.56393429999997 469.7845764 317.22329709999997 458.8262939 300.6382751 464.9089661 C 296.46484369999996 466.44238279999996 292.560791 468.7496949 289.0132446 471.4703369 C 281.90625 477.2113647 274.1054687 482.2174682 265.9031982 486.3306274 C 241.31640620000002 498.565216 212.105072 502.54214470000005 185.61808770000002 494.470642 C 176.87696830000002 491.7456664 168.49708550000003 487.7833251 161.1166229 482.4122924 C 168.73336790000002 487.3957214 177.12640380000002 491.1356506 185.89312740000003 493.5296325 C 221.11854550000004 503.3260803 259.74423210000003 492.51617419999997 287.90911860000006 470.0274658 C 291.6055908000001 467.23345950000004 295.65362540000007 464.87042230000003 300.05255120000004 463.2849731 C 317.5434875 456.994049 327.12548820000006 468.8826599 324.5768737 485.8751525 C 323.1810608 495.0370483 317.8088684 503.1533203 310.956665 509.1723022 L 310.956665 509.1723022 z" stroke-linecap="round" />
</g>
</g>
</g>
<g transform="matrix(1.9211538461538462 0 0 1.9211538461538462 780.5750718566233 509.9409636522406)" id="text-logo"  >
<g style=""  paint-order="stroke"   >
		<g transform="matrix(1 0 0 1 0 0)" id="text-logo-path-0"  >
<linearGradient id="SVGID_399997" gradientUnits="userSpaceOnUse" gradientTransform="matrix(1 0 0 1 4.590000000000003 -50.62)"  x1="-4.476998870849627" y1="-14.44035999999997" x2="-4.476998870849627" y2="69.55964000000003">
<stop offset="0%" style="stop-color:rgb(48,35,174);stop-opacity: 1"/>
<stop offset="100%" style="stop-color:rgb(200,109,215);stop-opacity: 1"/>
</linearGradient>
<path style="stroke: rgb(255,255,255); stroke-width: 0; stroke-dasharray: none; stroke-linecap: butt; stroke-dashoffset: 0; stroke-linejoin: miter; stroke-miterlimit: 4; fill: url(#SVGID_399997); fill-rule: nonzero; opacity: 1;"  paint-order="stroke"  transform=" translate(-187.70000000000002, 24.79)" d="M 43.51 -50.54 L 43.44 -50.62 L 30.19 -28.49 L 16.95 -50.62 L 4.59 -50.62 L 4.59 0 L 16.95 0 L 16.95 -28.05 L 28.71 -8.29 L 31.75 -8.29 L 43.51 -28.05 L 43.51 0 L 55.8 0 L 55.8 -50.62 L 43.51 -50.62 Z M 111.52 0 L 124.69 0 L 106.12 -50.62 L 92.94 -50.62 L 74.44 0 L 87.62 0 L 90.87 -8.81 L 108.26 -8.81 Z M 95.09 -20.5 L 99.6 -32.71 L 103.97 -20.5 Z M 172.05 -50.62 L 172.05 -24.86 L 155.62 -50.62 L 143.26 -50.62 L 143.26 0 L 155.62 0 L 155.62 -28.93 L 174.12 0 L 184.41 0 L 184.41 -50.62 Z M 239.46 0 L 252.64 0 L 234.06 -50.62 L 220.89 -50.62 L 202.39 0 L 215.56 0 L 218.82 -8.81 L 236.21 -8.81 Z M 223.04 -20.5 L 227.55 -32.71 L 231.92 -20.5 Z M 306.8 -27.23 C 308.51 -29.82 309.39 -32.56 309.39 -35.67 C 309.39 -43.66 303.03 -50.62 294.96 -50.62 L 272.17 -50.62 L 272.17 0 L 284.53 0 L 284.53 -0.07 L 296.22 -0.07 C 304.95 -0.07 311.47 -7.62 311.47 -16.06 C 311.47 -20.28 309.76 -24.27 306.8 -27.23 Z M 284.53 -11.69 L 284.53 -20.5 L 296.22 -20.5 C 298.37 -20.5 299.85 -18.13 299.85 -16.13 C 299.85 -14.13 298.44 -11.69 296.22 -11.69 Z M 284.53 -31.52 L 284.53 -38.92 L 294.96 -38.92 C 296.96 -38.92 298.15 -37.07 298.15 -35.22 C 298.15 -33.37 296.96 -31.67 294.96 -31.67 Z M 370.81 -17.02 L 370.81 -50.62 L 358.53 -50.62 L 358.53 -17.02 C 358.53 -12.73 354.39 -11.25 350.69 -11.25 C 347.28 -11.25 342.92 -13.02 342.92 -17.02 L 342.92 -50.62 L 330.63 -50.62 L 330.63 -17.02 C 330.63 -5.77 340.18 1.04 350.69 1.04 C 361.27 1.04 370.81 -5.99 370.81 -17.02 Z" stroke-linecap="round" />
</g>
</g>
</g>
</svg>
